<svg width="96" height="96" viewBox="0 0 96 96" fill="none" xmlns="http://www.w3.org/2000/svg">
    <g clip-path="url(#clip0_10655_52064)">
        <path d="M48 48.9795L86.2041 71.5101L48 94.0407L9.7959 71.5101L48 48.9795Z" fill="url(#paint0_linear_10655_52064)"/>
        <g opacity="0.2" filter="url(#filter0_f_10655_52064)">
            <path d="M48 87.1837C58.8203 87.1837 67.5919 78.4121 67.5919 67.5918C67.5919 56.7716 58.8203 48 48 48C37.1798 48 28.4082 56.7716 28.4082 67.5918C28.4082 78.4121 37.1798 87.1837 48 87.1837Z" fill="#2162EE"/>
        </g>
        <path d="M86.2041 71.5102V50.9388L48 28.4082V48.9796L86.2041 71.5102Z" fill="url(#paint1_linear_10655_52064)" stroke="url(#paint2_linear_10655_52064)" stroke-opacity="0.5" stroke-linecap="round" stroke-linejoin="round"/>
        <path d="M9.79592 71.5102V50.9388L48 28.4082V48.9796L9.79592 71.5102Z" fill="url(#paint3_linear_10655_52064)" stroke="url(#paint4_linear_10655_52064)" stroke-linecap="round" stroke-linejoin="round"/>
        <path d="M48 28.4082L86.2041 50.9388L48 73.4694L9.7959 50.9388L48 28.4082Z" stroke="url(#paint5_linear_10655_52064)" stroke-miterlimit="10" stroke-linejoin="round"/>
        <foreignObject x="21.9082" y="-3.56152" width="50.2256" height="80.2637"><div xmlns="http://www.w3.org/1999/xhtml" style="backdrop-filter:blur(3px);clip-path:url(#bgblur_1_10655_52064_clip_path);height:100%;width:100%"></div></foreignObject><path data-figma-bg-blur-radius="6" d="M36.1109 2.93848L65.6337 20.7329C65.6337 20.7329 65.6332 38.2038 65.6333 51.4283C65.6333 64.6528 57.9309 70.2022 57.9309 70.2022L28.4082 52.4079C28.4082 52.4079 36.1106 48.4897 36.1105 34.2854C36.1104 20.0812 36.1109 2.93848 36.1109 2.93848Z" fill="url(#paint6_linear_10655_52064)" fill-opacity="0.1" stroke="url(#paint7_linear_10655_52064)" stroke-opacity="0.2" stroke-miterlimit="10" stroke-linejoin="round"/>
        <path opacity="0.2" d="M43.1025 15.6733L57.7964 24.4897" stroke="url(#paint8_linear_10655_52064)" stroke-linecap="round" stroke-linejoin="round"/>
        <path opacity="0.2" d="M43.1025 20.5713L57.7964 29.3876" stroke="url(#paint9_linear_10655_52064)" stroke-linecap="round" stroke-linejoin="round"/>
        <path opacity="0.2" d="M43.1025 25.4692L57.7964 34.2856" stroke="url(#paint10_linear_10655_52064)" stroke-linecap="round" stroke-linejoin="round"/>
        <path opacity="0.2" d="M41.1426 41.1426L50.9385 47.0201" stroke="url(#paint11_linear_10655_52064)" stroke-linecap="round" stroke-linejoin="round"/>
        <path opacity="0.2" d="M40.1631 46.0405L45.061 48.9793" stroke="url(#paint12_linear_10655_52064)" stroke-linecap="round" stroke-linejoin="round"/>
        <foreignObject x="5.2959" y="46.439" width="47.2041" height="52.1021"><div xmlns="http://www.w3.org/1999/xhtml" style="backdrop-filter:blur(2px);clip-path:url(#bgblur_2_10655_52064_clip_path);height:100%;width:100%"></div></foreignObject><path data-figma-bg-blur-radius="4" d="M48 94.041V73.4696L9.7959 50.939V71.5104L48 94.041Z" fill="url(#paint13_linear_10655_52064)" stroke="url(#paint14_linear_10655_52064)" stroke-linecap="round" stroke-linejoin="round"/>
        <foreignObject x="43.5" y="46.439" width="47.2041" height="52.1021"><div xmlns="http://www.w3.org/1999/xhtml" style="backdrop-filter:blur(2px);clip-path:url(#bgblur_3_10655_52064_clip_path);height:100%;width:100%"></div></foreignObject><path data-figma-bg-blur-radius="4" d="M48 94.041V73.4696L86.2041 50.939V71.5104L48 94.041Z" fill="url(#paint15_linear_10655_52064)" stroke="url(#paint16_linear_10655_52064)" stroke-linecap="round" stroke-linejoin="round"/>
        <path d="M23.2723 69.0909C21.089 67.7506 20.5654 66.1387 20.5713 64.485C20.5773 62.8312 21.7961 62.2103 23.293 63.0999L32.5642 69.0324C34.4664 70.1638 35.2711 71.9847 35.2651 73.6384C35.2592 75.2921 34.0404 75.913 32.5435 75.0205L23.2723 69.0909Z" fill="url(#paint17_linear_10655_52064)" stroke="url(#paint18_linear_10655_52064)"/>
    </g>
    <defs>
        <filter id="filter0_f_10655_52064" x="12.4082" y="32" width="71.1836" height="71.1836" filterUnits="userSpaceOnUse" color-interpolation-filters="sRGB">
            <feFlood flood-opacity="0" result="BackgroundImageFix"/>
            <feBlend mode="normal" in="SourceGraphic" in2="BackgroundImageFix" result="shape"/>
            <feGaussianBlur stdDeviation="8" result="effect1_foregroundBlur_10655_52064"/>
        </filter>
        <clipPath id="bgblur_1_10655_52064_clip_path" transform="translate(-21.9082 3.56152)"><path d="M36.1109 2.93848L65.6337 20.7329C65.6337 20.7329 65.6332 38.2038 65.6333 51.4283C65.6333 64.6528 57.9309 70.2022 57.9309 70.2022L28.4082 52.4079C28.4082 52.4079 36.1106 48.4897 36.1105 34.2854C36.1104 20.0812 36.1109 2.93848 36.1109 2.93848Z"/>
        </clipPath><clipPath id="bgblur_2_10655_52064_clip_path" transform="translate(-5.2959 -46.439)"><path d="M48 94.041V73.4696L9.7959 50.939V71.5104L48 94.041Z"/>
    </clipPath><clipPath id="bgblur_3_10655_52064_clip_path" transform="translate(-43.5 -46.439)"><path d="M48 94.041V73.4696L86.2041 50.939V71.5104L48 94.041Z"/>
    </clipPath><linearGradient id="paint0_linear_10655_52064" x1="48" y1="47.9999" x2="48" y2="94.0407" gradientUnits="userSpaceOnUse">
        <stop stop-color="white" stop-opacity="0.09"/>
        <stop offset="1" stop-color="#3E4040" stop-opacity="0.4"/>
    </linearGradient>
        <linearGradient id="paint1_linear_10655_52064" x1="67.102" y1="28.4082" x2="67.102" y2="113.902" gradientUnits="userSpaceOnUse">
            <stop stop-color="white" stop-opacity="0.2"/>
            <stop offset="1" stop-color="#3E4040" stop-opacity="0.2"/>
        </linearGradient>
        <linearGradient id="paint2_linear_10655_52064" x1="79.3469" y1="66.1225" x2="56.8163" y2="47.0204" gradientUnits="userSpaceOnUse">
            <stop stop-color="white"/>
            <stop offset="1" stop-color="white" stop-opacity="0.06"/>
        </linearGradient>
        <linearGradient id="paint3_linear_10655_52064" x1="28.898" y1="28.4082" x2="28.898" y2="113.902" gradientUnits="userSpaceOnUse">
            <stop stop-color="white" stop-opacity="0.2"/>
            <stop offset="1" stop-color="#3E4040" stop-opacity="0.2"/>
        </linearGradient>
        <linearGradient id="paint4_linear_10655_52064" x1="27.9184" y1="65.1429" x2="41.6327" y2="54.3674" gradientUnits="userSpaceOnUse">
            <stop stop-color="white" stop-opacity="0.8"/>
            <stop offset="1" stop-color="white" stop-opacity="0.06"/>
        </linearGradient>
        <linearGradient id="paint5_linear_10655_52064" x1="66.6122" y1="66.6123" x2="71.0204" y2="26.449" gradientUnits="userSpaceOnUse">
            <stop stop-color="white"/>
            <stop offset="1" stop-color="white" stop-opacity="0"/>
        </linearGradient>
        <linearGradient id="paint6_linear_10655_52064" x1="23.6449" y1="-4.57474" x2="23.6449" y2="46.0406" gradientUnits="userSpaceOnUse">
            <stop stop-color="white" stop-opacity="0.8"/>
            <stop offset="1" stop-color="white" stop-opacity="0.4"/>
        </linearGradient>
        <linearGradient id="paint7_linear_10655_52064" x1="23.6449" y1="-4.57474" x2="23.6449" y2="70.5303" gradientUnits="userSpaceOnUse">
            <stop stop-color="white"/>
            <stop offset="1" stop-color="white" stop-opacity="0"/>
        </linearGradient>
        <linearGradient id="paint8_linear_10655_52064" x1="43.1025" y1="15.6733" x2="57.7964" y2="24.4897" gradientUnits="userSpaceOnUse">
            <stop stop-color="white"/>
            <stop offset="1" stop-color="white" stop-opacity="0"/>
        </linearGradient>
        <linearGradient id="paint9_linear_10655_52064" x1="43.1025" y1="20.5713" x2="57.7964" y2="29.3876" gradientUnits="userSpaceOnUse">
            <stop offset="0.599265" stop-color="white"/>
            <stop offset="1" stop-color="white" stop-opacity="0"/>
        </linearGradient>
        <linearGradient id="paint10_linear_10655_52064" x1="43.1025" y1="25.4692" x2="57.7964" y2="34.2856" gradientUnits="userSpaceOnUse">
            <stop offset="0.45098" stop-color="white"/>
            <stop offset="1" stop-color="white" stop-opacity="0"/>
        </linearGradient>
        <linearGradient id="paint11_linear_10655_52064" x1="41.1426" y1="41.1426" x2="55.8365" y2="49.9589" gradientUnits="userSpaceOnUse">
            <stop stop-color="white"/>
            <stop offset="1" stop-color="white" stop-opacity="0.25"/>
        </linearGradient>
        <linearGradient id="paint12_linear_10655_52064" x1="40.1631" y1="46.0405" x2="54.857" y2="54.8569" gradientUnits="userSpaceOnUse">
            <stop stop-color="white"/>
            <stop offset="1" stop-color="white" stop-opacity="0.25"/>
        </linearGradient>
        <linearGradient id="paint13_linear_10655_52064" x1="28.8979" y1="50.939" x2="28.8979" y2="136.433" gradientUnits="userSpaceOnUse">
            <stop stop-color="white" stop-opacity="0.4"/>
            <stop offset="1" stop-color="#3E4040" stop-opacity="0.2"/>
        </linearGradient>
        <linearGradient id="paint14_linear_10655_52064" x1="28.8979" y1="50.939" x2="28.8979" y2="136.433" gradientUnits="userSpaceOnUse">
            <stop stop-color="white" stop-opacity="0.8"/>
            <stop offset="1" stop-color="white" stop-opacity="0.06"/>
        </linearGradient>
        <linearGradient id="paint15_linear_10655_52064" x1="67.1021" y1="50.939" x2="67.1021" y2="136.433" gradientUnits="userSpaceOnUse">
            <stop stop-color="white" stop-opacity="0.2"/>
            <stop offset="1" stop-color="#3E4040" stop-opacity="0.2"/>
        </linearGradient>
        <linearGradient id="paint16_linear_10655_52064" x1="67.1021" y1="50.939" x2="67.1021" y2="136.433" gradientUnits="userSpaceOnUse">
            <stop stop-color="white" stop-opacity="0.8"/>
            <stop offset="1" stop-color="white" stop-opacity="0.06"/>
        </linearGradient>
        <linearGradient id="paint17_linear_10655_52064" x1="27.9182" y1="62.6938" x2="27.9182" y2="75.4285" gradientUnits="userSpaceOnUse">
            <stop stop-color="#131516"/>
            <stop offset="1" stop-color="#131516" stop-opacity="0"/>
        </linearGradient>
        <linearGradient id="paint18_linear_10655_52064" x1="25.4692" y1="71.6081" x2="30.5039" y2="67.9773" gradientUnits="userSpaceOnUse">
            <stop stop-color="white"/>
            <stop offset="1" stop-color="white" stop-opacity="0"/>
        </linearGradient>
        <clipPath id="clip0_10655_52064">
            <rect width="96" height="96" fill="white"/>
        </clipPath>
    </defs>
</svg>
